<?xml version="1.0" encoding="utf-8"?>
<!-- Generator: Adobe Illustrator 23.0.3, SVG Export Plug-In . SVG Version: 6.00 Build 0)  -->
<svg version="1.1" id="Layer_1" xmlns="http://www.w3.org/2000/svg" xmlns:xlink="http://www.w3.org/1999/xlink" x="0px" y="0px"
	 viewBox="0 0 612 792" style="enable-background:new 0 0 612 792;" xml:space="preserve">
<style type="text/css">
	.st0{fill-rule:evenodd;clip-rule:evenodd;fill:#E30613;}
	.st1{display:none;clip-path:url(#SVGID_2_);}
	.st2{display:inline;fill-rule:evenodd;clip-rule:evenodd;fill:#010202;}
	.st3{clip-path:url(#SVGID_2_);}
	.st4{fill:#FFFFFF;}
	.st5{fill:none;}
	.st6{fill:#010202;}
	.st7{fill:none;stroke:#010202;stroke-width:0;stroke-linecap:round;stroke-linejoin:round;stroke-miterlimit:10;}
</style>
<g>
	<g>
		<polyline class="st0" points="352.52,538.84 298.54,538.84 298.54,507.53 352.52,507.53 352.52,538.84 		"/>
	</g>
	<g>
		<polyline class="st0" points="352.52,580.95 298.54,580.95 298.54,549.64 352.52,549.64 352.52,580.95 		"/>
	</g>
	<g>
		<polyline class="st0" points="288.82,538.84 257.51,538.84 257.51,507.53 288.82,507.53 288.82,538.84 		"/>
	</g>
	<g>
		<polyline class="st0" points="288.82,580.95 257.51,580.95 257.51,549.64 288.82,549.64 288.82,580.95 		"/>
	</g>
	<g>
		<defs>
			<polygon id="SVGID_1_" points="7.53,707.92 7.53,24.26 3442.97,24.26 3442.97,707.92 7.53,707.92 			"/>
		</defs>
		<clipPath id="SVGID_2_">
			<use xlink:href="#SVGID_1_"  style="overflow:visible;"/>
		</clipPath>
		<g class="st1">
			<path class="st2" d="M834.89,472.6V302.15h84.6v-42.61H708l0.35,42.61h84.25V472.6H834.89L834.89,472.6z M1293.17,373.64v98.96
				h42.29v-98.96l94.73-114.11h-55.22l-60.83,72.9l-60.48-72.9h-55.24L1293.17,373.64L1293.17,373.64z M1004.09,259.53h-42.29V472.6
				h42.29v-85.23h126.89v85.23h42.29V259.53h-42.29v85.23h-126.89V259.53L1004.09,259.53z M2174.41,472.6v-42.61h-211.49v42.61
				H2174.41L2174.41,472.6z M2174.41,302.15v-42.61h-211.49v42.61H2174.41L2174.41,302.15z M2174.41,387.38v-42.61h-211.49v42.61
				H2174.41L2174.41,387.38z M2597.04,472.6V302.15h84.6v-42.61H2470.5v42.61h84.6V472.6H2597.04L2597.04,472.6z M1617.56,472.6
				h65.02l-99.62-85.23c8.9,0.17,17.89,0.21,26.95-0.76c4.54-0.52,9.09-1.39,12.41-2.13c3.32-0.74,5.41-1.33,7.53-2.04
				c4.07-1.29,8.2-3.31,12.18-5.95c1.93-1.25,3.82-2.5,5.57-3.91c1.77-1.39,3.4-2.92,4.93-4.57c1.53-1.65,2.95-3.42,4.15-5.31
				c2.38-3.86,4.36-8.11,5.92-12.26c0.75-2.12,1.31-4.23,1.85-6.47c0.52-2.24,1.03-4.58,1.46-8.05c0.42-3.46,0.78-8.05,0.93-12.64
				c-0.15-4.6-0.5-9.18-0.93-12.58c-0.43-3.42-0.94-5.64-1.49-7.81c-1.06-4.23-2.24-8.5-4.25-12.73c-0.99-2.06-2.16-4.06-3.44-5.95
				c-1.3-1.88-2.69-3.65-4.22-5.29c-1.53-1.65-3.16-3.16-4.86-4.57c-5.68-4.62-11.53-8.08-17.53-9.89c-2.16-0.7-4.38-1.29-7.76-2.01
				c-3.38-0.74-7.92-1.62-12.48-2.17c-4.54-0.56-9.1-0.74-13.66-0.74h-140.86v42.61h133.87c3.86,0.08,7.71,0.32,10.63,0.62
				s4.9,0.66,6.83,1.13c1.93,0.46,3.82,1.02,5.59,1.77c1.75,0.76,3.4,1.72,4.96,2.81c1.54,1.11,3,2.4,4.14,3.94
				c3.36,4.85,3.9,10.69,2.44,16.47c-0.52,1.78-1.37,3.44-2.44,4.98c-1.07,1.55-2.36,2.98-3.78,4.15
				c-2.96,2.55-6.57,3.69-10.16,4.68c-1.88,0.54-3.73,1.07-6.77,1.46c-3.03,0.37-7.24,0.6-11.44,0.6h-133.87v42.61h62.57
				L1617.56,472.6L1617.56,472.6z M1871,472.6h65.02l-99.63-85.23c8.9,0.17,17.89,0.21,26.95-0.76c4.54-0.52,9.08-1.39,12.41-2.13
				c3.32-0.74,5.43-1.33,7.53-2.04c4.07-1.29,8.2-3.31,12.18-5.95c1.93-1.25,3.82-2.5,5.57-3.91c1.77-1.39,3.4-2.92,4.93-4.57
				c1.53-1.65,2.95-3.42,4.16-5.31c2.38-3.86,4.36-8.11,5.92-12.26c0.76-2.12,1.31-4.23,1.85-6.47c0.52-2.24,1.03-4.58,1.46-8.05
				c0.43-3.46,0.78-8.05,0.94-12.64c-0.16-4.6-0.51-9.18-0.94-12.58c-0.43-3.42-0.94-5.64-1.47-7.81c-1.07-4.23-2.25-8.5-4.26-12.73
				c-0.99-2.06-2.16-4.06-3.44-5.95c-1.29-1.88-2.69-3.65-4.22-5.29c-1.51-1.65-3.16-3.16-4.86-4.57
				c-5.68-4.62-11.52-8.08-17.51-9.89c-2.17-0.7-4.4-1.29-7.77-2.01c-3.38-0.74-7.92-1.62-12.46-2.17
				c-4.56-0.56-9.11-0.74-13.67-0.74H1708.8v42.61h133.87c3.86,0.08,7.71,0.32,10.63,0.62s4.9,0.66,6.83,1.13
				c1.94,0.46,3.82,1.02,5.59,1.77c1.76,0.76,3.4,1.72,4.96,2.81c1.55,1.11,3,2.4,4.14,3.94c3.36,4.85,3.9,10.69,2.45,16.47
				c-0.54,1.78-1.38,3.44-2.44,4.98c-1.07,1.55-2.37,2.98-3.79,4.15c-2.96,2.55-6.57,3.69-10.16,4.68
				c-1.88,0.54-3.73,1.07-6.77,1.46c-3.03,0.37-7.24,0.6-11.44,0.6H1708.8v42.61h62.57L1871,472.6L1871,472.6z M2886.5,472.6h65.02
				l-99.63-85.23c8.9,0.17,17.89,0.21,26.95-0.76c4.54-0.52,9.09-1.39,12.41-2.13c3.32-0.74,5.43-1.33,7.53-2.04
				c4.09-1.29,8.2-3.31,12.2-5.95c1.92-1.25,3.81-2.5,5.57-3.91c1.76-1.39,3.39-2.92,4.92-4.57c1.53-1.65,2.95-3.42,4.15-5.31
				c2.4-3.86,4.36-8.11,5.92-12.26c0.76-2.12,1.31-4.23,1.85-6.47c0.52-2.24,1.03-4.58,1.46-8.05c0.43-3.46,0.78-8.05,0.94-12.64
				c-0.15-4.6-0.51-9.18-0.94-12.58c-0.43-3.42-0.94-5.64-1.47-7.81c-1.06-4.23-2.25-8.5-4.26-12.73c-0.98-2.06-2.16-4.06-3.44-5.95
				c-1.29-1.88-2.69-3.65-4.22-5.29c-1.51-1.65-3.16-3.16-4.86-4.57c-5.68-4.62-11.53-8.08-17.51-9.89
				c-2.17-0.7-4.38-1.29-7.77-2.01c-3.38-0.74-7.92-1.62-12.46-2.17c-4.56-0.56-9.11-0.74-13.67-0.74H2724.3v42.61h133.88
				c3.85,0.08,7.69,0.32,10.61,0.62c2.92,0.29,4.9,0.66,6.83,1.13c1.94,0.46,3.82,1.02,5.59,1.77c1.77,0.76,3.4,1.72,4.96,2.81
				c1.55,1.11,3.02,2.4,4.14,3.94c3.38,4.85,3.9,10.69,2.45,16.47c-0.52,1.78-1.37,3.44-2.44,4.98c-1.07,1.55-2.37,2.98-3.79,4.15
				c-2.96,2.55-6.57,3.69-10.16,4.68c-1.86,0.54-3.73,1.07-6.76,1.46c-3.04,0.37-7.25,0.6-11.44,0.6H2724.3v42.61h62.57
				L2886.5,472.6L2886.5,472.6z M2371.18,471.88c4.49-0.56,8.91-1.45,12.25-2.17c3.32-0.72,5.55-1.29,7.71-2.06
				c4.15-1.54,8.23-3.61,12.25-5.96c1.93-1.17,3.81-2.45,5.56-3.86c1.77-1.41,3.4-2.95,4.93-4.58c1.53-1.65,2.93-3.4,4.15-5.31
				c2.38-3.86,4.35-8.11,5.92-12.26c0.76-2.12,1.31-4.25,1.85-6.47c0.54-2.24,1.06-4.58,1.44-8.05c0.37-3.46,0.6-8.05,0.6-12.64
				c0-4.58-0.23-9.18-0.6-12.58c-0.38-3.4-0.9-5.63-1.44-7.81c-0.98-4.26-2.47-8.48-4.56-12.7c-0.99-2.06-2-4.09-3.22-5.98
				c-1.22-1.89-2.63-3.64-4.17-5.29c-1.53-1.63-3.18-3.16-4.87-4.57c-5.68-4.62-11.52-8.08-17.53-9.89
				c-2.16-0.7-4.38-1.29-7.76-2.01c-3.38-0.74-7.92-1.62-12.48-2.17c-4.54-0.56-9.1-0.74-13.65-0.74h-63.62
				c-3.85,0-7.69-0.31-10.56-0.62c-2.85-0.29-4.72-0.67-6.59-1.14c-1.88-0.47-3.75-1.03-5.59-1.77c-1.84-0.74-3.63-1.65-5.17-2.83
				c-1.53-1.18-2.81-2.63-3.89-4.18c-3.36-4.57-3.81-10.88-2.45-16.31c0.46-1.8,1.11-3.6,2.12-5.15c1.01-1.55,2.34-2.84,3.84-3.94
				c1.49-1.1,3.15-2.01,4.87-2.84c1.7-0.82,3.44-1.55,5.32-2.09c1.88-0.54,3.86-0.87,6.9-1.15c3.04-0.3,7.13-0.6,11.2-0.6h133.88
				v-42.61h-140.86c-4.56,0-9.11,0.23-13.6,0.7c-4.5,0.48-8.94,1.19-12.26,1.92c-3.31,0.74-5.52,1.49-7.68,2.26
				c-2.16,0.79-4.26,1.59-6.31,2.52c-2.05,0.91-4.06,1.96-5.92,3.19c-1.86,1.25-3.59,2.69-5.28,4.17c-1.69,1.47-3.35,2.99-4.88,4.62
				c-3.16,3.4-5.73,7.32-7.65,11.19c-1.98,4.1-3.38,8.36-4.6,12.72c-0.6,2.24-1.11,4.46-1.49,7.87c-0.36,3.42-0.6,8-0.6,12.6
				c0,4.58,0.24,9.18,0.62,12.58c0.37,3.4,0.91,5.63,1.45,7.87c0.52,2.24,1.07,4.49,1.81,6.66c2.05,6,5.66,11.62,10.17,17.31
				c1.45,1.72,3.07,3.39,4.84,4.85c5.7,4.58,11.73,7.41,17.78,9.85c2.09,0.78,4.21,1.35,7.53,2.09c3.32,0.72,7.87,1.59,12.41,2.14
				c4.56,0.56,9.11,0.74,13.67,0.74h63.61c3.86,0.08,7.71,0.32,10.63,0.62c2.92,0.3,4.9,0.66,6.83,1.13
				c1.93,0.46,3.82,1.03,5.57,1.78c1.77,0.75,3.42,1.7,4.97,2.81c1.54,1.1,3,2.39,4.14,3.93c3.36,4.84,3.9,10.69,2.45,16.47
				c-0.54,1.78-1.38,3.44-2.45,4.99c-1.07,1.55-2.37,2.97-3.78,4.17c-2.97,2.55-6.57,3.69-10.16,4.66
				c-1.88,0.54-3.72,1.07-6.77,1.46c-3.03,0.39-7.24,0.6-11.44,0.6h-133.87v42.61h140.87
				C2362.14,472.6,2366.7,472.43,2371.18,471.88L2371.18,471.88z M3189.19,401.46l-0.01-141.88l-41.93-0.04v135.95
				c-0.43,4.53-0.63,9.35-1.8,14.04c-0.6,2.27-1.55,4.4-2.73,6.34c-1.19,1.96-2.61,3.72-4.21,5.33c-1.58,1.6-3.34,3.03-5.28,4.22
				c-6.15,3.74-13.37,4.65-20.25,4.57h-59.07c-6.57,0.09-13.21-0.68-19.95-4.58c-2.01-1.16-3.9-2.57-5.49-4.18
				c-1.58-1.61-2.85-3.4-3.95-5.37c-3.62-6.21-4.6-13.46-4.5-20.37V259.53h-41.96v141.92c0,4.82,0.31,9.63,0.62,13.23
				c0.29,3.58,0.66,5.94,1.13,8.28c0.93,4.66,2.32,9.25,4.21,13.76c0.94,2.24,1.97,4.48,3.12,6.61c1.16,2.12,2.45,4.13,3.85,6
				c1.41,1.89,2.92,3.66,4.57,5.31c1.63,1.65,3.39,3.18,5.25,4.58c1.88,1.41,3.87,2.69,5.91,3.87c6.38,3.74,13.4,5.95,20.27,7.38
				c2.33,0.48,4.66,0.83,8.22,1.18c3.56,0.36,8.35,0.71,13.13,0.94h70.61c4.78-0.23,9.57-0.58,13.12-0.94
				c3.56-0.35,5.9-0.7,8.23-1.18c4.61-0.99,9.17-2.2,13.67-3.9c4.28-1.66,8.38-3.95,12.26-7.06c1.88-1.49,3.75-3.12,5.44-4.82
				c9.64-10.04,13.64-20.91,15.81-31.44c0.47-2.41,0.82-4.88,1.13-8.52C3188.88,411.09,3189.19,406.28,3189.19,401.46
				L3189.19,401.46z M3372.71,259.53h-140.87V472.6h41.94v-85.23h98.92c4.56,0,9.11-0.18,13.6-0.72c4.49-0.56,8.91-1.45,12.24-2.18
				c3.32-0.74,5.55-1.31,7.71-2.01c4.19-1.29,8.25-3.34,12.26-5.96c1.93-1.23,3.82-2.49,5.52-3.9c1.7-1.41,3.2-2.95,4.65-4.61
				c1.46-1.65,2.88-3.42,4.15-5.29c2.6-3.84,4.76-8.09,6.26-12.25c0.75-2.12,1.3-4.23,1.83-6.47c0.54-2.24,1.06-4.58,1.43-8.05
				c0.38-3.46,0.6-8.05,0.6-12.64c0-4.6-0.23-9.18-0.6-12.58c-0.38-3.42-0.9-5.64-1.43-7.81c-0.98-4.26-2.47-8.5-4.56-12.7
				c-0.99-2.06-2-4.09-3.22-5.98c-1.22-1.89-2.63-3.66-4.15-5.31c-1.53-1.65-3.16-3.18-4.93-4.57c-3.59-2.8-7.57-5.32-11.44-7.36
				c-1.98-1.01-3.98-1.82-6.08-2.53c-2.1-0.7-4.31-1.27-7.71-2.01c-3.38-0.72-7.92-1.61-12.48-2.16
				C3381.82,259.71,3377.26,259.53,3372.71,259.53L3372.71,259.53z M3376.93,344.14c3.04-0.37,5.01-0.88,6.89-1.43
				c1.86-0.54,3.63-1.1,5.35-1.84c1.71-0.74,3.39-1.66,4.86-2.84c1.49-1.17,2.77-2.61,3.85-4.15c3.44-4.89,3.93-10.64,2.12-16.25
				c-0.59-1.85-1.39-3.66-2.45-5.2c-1.06-1.55-2.37-2.85-3.93-3.98c-3.18-2.26-7.08-3.64-10.73-4.56c-1.88-0.46-3.74-0.83-6.59-1.13
				c-2.87-0.31-6.71-0.62-10.57-0.62h-91.93v42.61h91.93C3369.8,344.76,3373.9,344.53,3376.93,344.14"/>
		</g>
		<g id="XMLID_1_" class="st3">
			<g>
				<path class="st4" d="M56.41,148.87v0.04c-1.57,53.33,1.91,106.91,10.33,159.76c4.2,26.46,9.65,52.71,15.4,74.83
					c5.76,22.11,11.83,40.1,19.4,57.49c7.58,17.39,16.66,34.2,27.03,50.1c10.37,15.91,22.04,30.93,35,45.55
					c12.96,14.61,27.2,28.83,42.18,42.21c14.99,13.38,30.7,25.92,47.04,37.59c16.32,11.67,33.27,22.47,50.73,32.34
					c1.22,0.57,2.33,0.61,3.39,0.02c17.49-9.83,34.44-20.61,50.78-32.26c16.33-11.68,32.04-24.23,47.02-37.57
					c14.99-13.34,29.25-27.47,42.71-42.31l-0.07-0.39c12.74-14.06,24.35-29.12,34.69-45.07c10.35-15.93,19.42-32.74,26.99-50.1
					c7.57-17.37,13.66-35.29,19.41-57.37c5.76-22.07,11.2-48.31,15.41-74.75c4.22-26.44,7.22-53.09,8.94-79.81
					c1.72-26.72,2.17-53.52,1.34-80.28c0-0.34-0.07-0.67-0.19-0.99c-0.26-0.93-1.42-1.89-2.19-2.04l-43.59-12.53l42.52-46.86
					l52.49,16.92l-2.6,52.51l-4.34,52.5l-6.07,52.49l-8.24,52.07l-10.07,51.78c-4.91,21.32-11.43,42.28-19.45,62.66
					c-8.03,20.38-17.6,40.19-28.53,59.16c-10.94,18.98-23.25,37.11-38.5,56.53c-15.26,19.43-33.46,40.15-52.73,59.84
					c-19.29,19.7-39.63,38.37-60.91,55.87c-21.27,17.51-43.47,33.84-66.49,48.93c-23.02-15.15-45.23-31.52-66.51-49.05
					c-21.28-17.53-41.63-36.2-60.85-55.89c-19.23-19.7-37.33-40.43-52.57-59.85c-15.25-19.4-27.62-37.52-38.58-56.48
					c-10.96-18.95-20.51-38.77-28.57-59.23c-8.07-20.45-14.65-41.53-19.66-62.98c-5.93-28.61-11.03-57.4-15.3-86.32
					c-4.26-28.92-7.69-57.97-10.28-87.1c-2.57-29.12-4.31-58.33-5.2-87.56l52.22-16.8l42.52,46.86l-43.68,12.56
					c-0.34,0.09-0.65,0.22-0.94,0.42C56.55,147.31,56.49,148.06,56.41,148.87z"/>
				<path class="st4" d="M533.27,286.51c-1.66,3.23-3.76,6.22-6.27,8.87c-2.49,2.65-5.37,4.97-8.51,6.83
					c-3.13,1.88-6.51,3.3-10.02,4.23l0.04,0.12c-11.9,3.08-23.89,4.47-35.5,3.36l15.27-24.99c4.59,2.37,9.54,4.06,14.66,5.01
					C513.24,291.87,524,290.68,533.27,286.51z"/>
				<path class="st4" d="M512.06,53.93l-28.85,32.18c-38.59-10.19-78.07-17.05-117.91-20.49c-79.72-6.89-160.62,0.08-237.75,20.46
					L98.54,54.07c44.65-13.08,90.56-21.93,136.98-26.32C328.4,18.9,422.92,27.89,512.06,53.93z"/>
				<path class="st4" d="M475.31,274.99c0.29,0.43,0.38,0.97,0.25,1.47c-2.61,10.39-6.43,20.61-11.42,30.89
					c-0.16,0.32-0.41,0.59-0.71,0.77c-1.69,1-3.32,2.12-4.89,3.35c-1.71,1.36-3.35,2.86-4.86,4.47c-0.27,0.28-0.53,0.56-0.79,0.85
					c-0.38,0.43-0.88,0.62-1.37,0.62c-0.93,0-1.82-0.71-1.82-1.81c0-2.12-3.01-2.53-3.58-0.49c-0.61,2.2-1.15,4.43-1.61,6.68
					c-1.21,5.86-1.93,11.89-2.18,17.91c-0.28,5.84-0.02,11.69,0.49,17.49c0.05,0.59-0.19,1.18-0.64,1.56
					c-2.32,1.93-4.77,3.71-7.31,5.35c-2.81,1.81-5.74,3.43-8.83,4.79c-2.9,1.3-5.93,2.36-9.03,3.18c-0.4,0.11-0.82,0.07-1.2-0.1
					c-3.34-1.47-6.85-2.55-10.44-3.18c-4.09-0.74-8.26-0.9-12.35-0.52c-2.04,0.19-2.25,3.11-0.26,3.58
					c3.14,0.75,6.21,1.81,9.14,3.21c2.51,1.19,4.9,2.62,7.14,4.26c0.7,0.51,0.93,1.47,0.55,2.24c-1.39,2.79-3.01,5.45-4.87,7.97
					c-2.15,2.94-4.61,5.66-7.34,8.07c-2.6,2.29-5.44,4.29-8.45,5.96c-0.31,0.17-0.66,0.24-1.02,0.21
					c-6.21-0.45-12.31,0.68-18.15,3.52c-1.2,0.58-2.6-0.26-2.63-1.59c-0.12-5.13,0.34-10.27,1.52-15.32
					c0.45-1.94-2.03-3.11-3.23-1.52c-0.54,0.72-1.05,1.45-1.53,2.21c-1.87,2.96-3.28,6.26-4.11,9.68c-0.78,3.27-1.05,6.66-0.78,10
					c0.03,0.29-0.02,0.57-0.14,0.84c-1.71,3.93-2.72,8.19-2.95,12.51c-0.23,4.48,0.37,9.04,1.72,13.3c1.28,3.98,3.2,7.72,5.68,11.09
					c0.35,0.47,0.89,0.74,1.47,0.74h2.54c0.69,0,1.32,0.39,1.63,1.01l7.75,15.8c0.6,1.21-0.28,2.62-1.63,2.62h-40.96
					c-1.35,0-2.21-1.4-1.63-2.61c2.67-5.51,4.56-11.72,5.58-18.11c2.33-14.71,0.05-30.11-6.08-43.44c-0.22-0.46-0.62-0.82-1.1-0.98
					c-7.59-2.52-14.98-3.49-22.55-3.75c-2.14-0.23-4.43-1.11-6.09-3.71c-4.36-5.17-9.24-9.93-14.53-14.18
					c-5.29-4.23-11.01-7.97-17.03-11.11c-5.29-2.76-10.81-5.06-16.47-6.87c-1.18-0.37-1.67-1.77-0.96-2.78
					c1.24-1.78,2.59-3.5,4.03-5.17c2.01-2.29,4.21-4.49,6.57-6.5c0.32-0.28,0.66-0.55,0.99-0.82c1.52-1.23,0.28-3.67-1.6-3.17
					c-5.73,1.48-11.38,4.05-16.74,7.88c-5.09,3.44-9.87,7.34-14.25,11.63c-4.39,4.29-8.38,8.96-11.96,13.92
					c-3.45,4.75-6.54,9.76-9.22,14.98c-0.22,0.42-0.58,0.73-1.01,0.88c-5.23,1.8-10.21,4.39-14.74,7.71
					c-4.75,3.46-9.01,7.71-12.51,12.52c-3.51,4.81-6.24,10.18-8.08,15.77c-1.66,5.03-2.59,10.25-2.8,15.48
					c-0.03,0.91,0.63,1.68,1.52,1.84c0.29,0.05,0.56,0.11,0.83,0.2c1.27,0.41,2.42,1.18,3.43,2.62c0.39,0.59,0.69,1.25,0.88,1.93
					l3.91,13.52c0.34,1.16-0.53,2.32-1.74,2.32h-48.27c-1.16,0-2.04-1.06-1.79-2.19c1.74-7.9,4.38-16,7.88-23.75
					c3.82-8.47,8.67-16.51,14.34-23.88c5.44-7.11,11.65-13.56,18.49-19.28c0.5-0.42,0.74-1.07,0.62-1.71
					c-1.95-10.66-2.33-21.51-1.37-32.14c1.12-13.58,4.89-27.35,10.84-40.14c3.51-7.57,7.77-14.81,12.72-21.53
					c4.81-6.55,10.27-12.61,16.26-18.08c0.3-0.27,0.68-0.43,1.07-0.47c14.09-1.2,28.17-4.29,42-9.48c1.69-0.64,3.2,1.3,2.12,2.76
					c-3.53,4.81-7.27,9.59-11.34,14.33c-1.36,1.58,0.55,3.81,2.33,2.73c0.6-0.36,1.2-0.73,1.79-1.11c3.62-2.29,7.06-4.78,10.37-7.45
					c3.3-2.66,6.46-5.5,9.45-8.51l0.08,0.21c2.81-2.85,5.42-5.89,7.78-9.12c2.38-3.23,4.51-6.63,6.35-10.18
					c1.8-3.4,3.34-6.94,4.61-10.56c0.1-0.29,0.27-0.55,0.5-0.76c6.65-5.89,13.65-11.4,20.94-16.46c7.42-5.15,15.15-9.84,23.09-14.04
					c7.96-4.21,16.16-7.95,24.55-11.19c2.67-1.16,5.46-1.68,8.14-1.71c1.41-0.01,2.81,0.11,6.2,0.82c3.39,0.7,8.77,1.97,14.09,3.59
					c5.33,1.62,10.6,3.59,15.65,5.97c5.06,2.35,9.91,5.13,12.82,6.76c2.9,1.65,3.83,2.17,4.73,2.74c1.69,1.08,3.28,2.33,4.98,3.64
					c-2.51-0.08-5-0.08-7.54,0.03c-8.56,0.63-17.2,0.94-25.44,4.73c-1.82,0.83-1.19,3.54,0.81,3.47c11.11-0.4,22.27,0.84,32.98,3.63
					c6.59,1.72,13.01,3.99,18.31,6.41c5.3,2.4,9.48,4.93,13.48,7.8c3.98,2.86,7.76,6.08,11.19,9.62
					C469.81,267.5,472.72,271.13,475.31,274.99z M402.21,316.1c0.03-3.1-0.78-6.29-2.51-9.45c-1.77-2.85-3.55-5.7-5.72-8.2
					c-2.16-2.52-4.73-4.69-7.31-6.87l-0.44,10.9c2.04,1.18,3.99,2.48,5.87,3.89c1.86,1.42,3.66,2.93,5.35,4.57
					C399.14,312.56,400.72,314.29,402.21,316.1z M378,277.26c2.76-2.24,3.56-4.92,3.46-7.69l-0.7-9.57
					c-5.53-0.57-10.96-1.99-16.08-4.2c-5.13-2.23-9.94-5.24-14.16-8.9c-4.22-3.65-7.85-7.92-10.78-12.65
					c-0.44,4.71-0.05,9.51,1.18,14.16c1.25,4.65,3.33,9.17,6.09,13.2c2.76,4.05,6.2,7.61,10.08,10.51
					c3.87,2.89,8.18,5.14,12.73,6.56C372.3,279.43,375.08,279.41,378,277.26z"/>
				<path class="st4" d="M459.99,112.08l-24.02,26.01c-28.59-5.95-57.58-9.93-86.75-11.93c-58.36-4.01-117.28,0.01-174.45,11.89
					l-23.85-26.27c33.69-7.93,67.98-13.27,102.54-15.93C322.61,90.46,392.65,95.9,459.99,112.08z"/>
				<path class="st4" d="M424.36,387.25l1.31,23.66c-5.07,9.35-9.26,18.76-13.46,28.02c-0.34,2.17,0.29,4.41,2.36,6.07
					c-4.45,7.18-7.7,14.38-10.46,21.53l-28.81-37.47c6.67-2.86,13.06-6.4,19.04-10.54c5.99-4.16,11.56-8.91,16.6-14.15
					C415.98,399.11,420.47,393.38,424.36,387.25z"/>
				<path class="st4" d="M417.91,158.49l-18.65,20.4c-20.65-3.48-41.49-5.83-62.42-6.98c-41.91-2.28-84.09,0.05-125.47,6.6
					L193,158.35c24.67-4.55,49.63-7.6,74.7-9.13C317.89,146.15,368.49,149.25,417.91,158.49z"/>
				<path class="st5" d="M381.46,269.57c0.1,2.77-0.7,5.45-3.46,7.69c-2.92,2.15-5.7,2.17-8.18,1.42
					c-4.55-1.42-8.86-3.67-12.73-6.56c-3.88-2.9-7.32-6.46-10.08-10.51c-2.76-4.03-4.84-8.55-6.09-13.2
					c-1.23-4.65-1.62-9.45-1.18-14.16c2.93,4.73,6.56,9,10.78,12.65c4.22,3.66,9.03,6.67,14.16,8.9c5.12,2.21,10.55,3.63,16.08,4.2
					L381.46,269.57z"/>
				<path class="st4" d="M300.37,449.97l7.82,18.59l-42.7,0.1c3.07-9.78,2.29-19.95-1.19-28.92c-1.23-3.48-3.03-6.75-5.29-9.65
					c-2.25-2.89-4.99-5.41-8-7.46c-2.99-2.03-6.27-3.6-9.69-4.67c2.03-4.32,3.72-8.78,5.06-13.37c2.74-9.43,3.9-19.07,3.62-28.45
					c4.42,1,8.73,2.48,12.87,4.44c4.12,1.97,8.06,4.41,11.74,7.3c3.65,2.88,7.04,6.21,10.02,9.85c-1.64,4.26-3.9,8.53-7.04,12.47
					c-1.5,1.87-3.17,3.61-4.99,5.21l0.02,6.14c1.85,3.35,3.9,6.6,6.13,9.72c2.23,3.11,4.65,6.1,7.18,8.96
					c2.53,2.84,5.18,5.54,7.95,8.12C296.03,450.12,298.42,450.96,300.37,449.97z"/>
				<path class="st6" d="M241.32,417.96c-0.01,0.02-0.02,0.05-0.03,0.07l-0.07-0.1C241.25,417.94,241.29,417.95,241.32,417.96z"/>
				<path class="st4" d="M219.61,244.12c0.17,5.58-1.34,11.19-5,16.23c-2.5,3.19-5.3,6.14-8.37,8.83c-3.07,2.7-6.41,5.13-9.95,7.2
					c-3.55,2.06-7.31,3.74-11.2,5.01c-4.68,1.42-9.18,3.39-13.41,5.88c-4.24,2.48-8.22,5.48-11.77,8.9
					c-3.54,3.4-6.66,7.22-9.27,11.36c-6.22,2.18-12.63,2.72-18.67,2.23c2.24-3.87,4.91-7.73,8.05-11.32
					c1.51-1.73,3.09-3.33,4.76-4.83c3.86-3.67,7.95-7.1,12.25-10.25c4.3-3.15,8.8-6.02,13.48-8.59c4.66-2.56,9.49-4.82,14.45-6.77
					l-0.2,0.07c4.89-1.96,9.74-4.77,14.24-9.54c2.63-2.71,4.81-5.84,6.45-9.27c1.63-3.43,2.7-7.15,3.16-10.91
					c0.45-3.77,0.28-7.57-0.5-11.26c2.2,1.13,4.21,2.39,5.91,4.13c1.69,1.71,3.07,3.75,4.02,5.96
					C218.99,239.38,219.52,241.75,219.61,244.12z"/>
				<path class="st4" d="M193.8,225.75v13.88c-3.68-1-7.42-0.16-10.64,1.95c-0.33,2.84-1.54,5.79-3.84,7.97
					c-1.08,1.01-2.32,1.78-3.68,2.32c-5.13,1.82-10.09,4.11-14.83,6.85c-4.74,2.73-9.26,5.91-13.51,9.42
					c-4.25,3.49-8.23,7.33-11.87,11.44c0.04-6.77,1.11-13.53,3.22-20.05c2.1-6.52,5.24-12.82,9.26-18.41
					c4.03-5.59,8.95-10.49,14.51-14.48c2.83-1.89,5.3-1.36,7.44,0.47c1.58,1.31,3.13,1.8,4.62,1.92
					C180.98,226.93,187.5,225.91,193.8,225.75z"/>
				<path class="st4" d="M172.4,311.37c-3.14,6.15-5.47,12.3-7.14,18.44c-1.57,1.31-3.3,2.42-5.14,3.29
					c-3.89,1.85-8.01,2.44-11.81,1.99c-5.34,0.13-10.94-1.64-15.47-5.22c-2.17-1.71-4.03-3.78-5.51-6.09
					c10.54,1.12,21.43-0.45,31.28-4.55C163.53,317.2,168.16,314.54,172.4,311.37z"/>
			</g>
		</g>
		<g class="st3">
			<path class="st7" d="M399.26,178.89l18.65-20.4c-49.42-9.25-100.02-12.34-150.2-9.27c-25.07,1.53-50.04,4.58-74.71,9.13
				l18.37,20.17c41.38-6.55,83.57-8.88,125.47-6.61C357.77,173.06,378.61,175.41,399.26,178.89L399.26,178.89z M174.77,138.05
				c57.17-11.87,116.09-15.89,174.45-11.89c29.17,2,58.16,5.98,86.75,11.93l24.01-26.01C392.65,95.9,322.61,90.46,253.46,95.85
				c-34.56,2.67-68.85,8-102.54,15.93L174.77,138.05L174.77,138.05z M127.55,86.08C204.68,65.7,285.58,58.73,365.3,65.62
				c39.84,3.44,79.32,10.3,117.91,20.49l28.85-32.17C422.92,27.89,328.4,18.9,235.52,27.75c-46.42,4.4-92.33,13.24-136.98,26.32
				L127.55,86.08L127.55,86.08z M169.86,227.11c-2.13-1.82-4.61-2.36-7.44-0.47c-5.56,3.99-10.48,8.9-14.51,14.49
				c-4.02,5.59-7.16,11.89-9.26,18.41c-2.1,6.51-3.18,13.28-3.22,20.05c3.64-4.11,7.63-7.95,11.87-11.44
				c4.25-3.51,8.76-6.69,13.51-9.42c4.74-2.73,9.7-5.03,14.83-6.85c1.35-0.54,2.6-1.31,3.67-2.32c2.31-2.18,3.51-5.13,3.85-7.97
				c3.22-2.1,6.95-2.95,10.64-1.94v-13.88c-6.3,0.16-12.82,1.18-19.32,3.28C172.99,228.91,171.44,228.42,169.86,227.11
				L169.86,227.11z M208.11,227.09c0.78,3.68,0.95,7.49,0.5,11.26c-0.46,3.76-1.53,7.48-3.16,10.91c-1.63,3.43-3.82,6.57-6.45,9.27
				c-4.5,4.77-9.35,7.58-14.24,9.54l0.2-0.07c-4.96,1.94-9.78,4.21-14.45,6.77c-4.68,2.57-9.18,5.44-13.48,8.59
				c-4.3,3.15-8.39,6.58-12.25,10.25c-1.68,1.5-3.26,3.1-4.76,4.82c-3.15,3.59-5.81,7.45-8.05,11.32c6.04,0.5,12.45-0.05,18.67-2.22
				c2.61-4.14,5.73-7.96,9.27-11.36c3.55-3.42,7.53-6.42,11.77-8.9c4.23-2.49,8.74-4.46,13.41-5.88c3.89-1.27,7.65-2.95,11.2-5.01
				c3.54-2.06,6.87-4.5,9.94-7.2c3.07-2.69,5.87-5.64,8.38-8.83c3.66-5.04,5.17-10.65,5-16.23c-0.09-2.37-0.62-4.74-1.57-6.94
				c-0.95-2.21-2.33-4.25-4.02-5.96C212.32,229.48,210.31,228.22,208.11,227.09L208.11,227.09z M148.31,335.09
				c3.81,0.46,7.92-0.13,11.82-1.98c1.84-0.87,3.56-1.98,5.13-3.3c1.68-6.14,4.01-12.29,7.14-18.44c-4.24,3.18-8.87,5.83-13.79,7.87
				c-9.85,4.1-20.74,5.67-31.28,4.54c1.47,2.32,3.34,4.38,5.51,6.1C137.37,333.45,142.97,335.22,148.31,335.09L148.31,335.09z
				 M393.98,298.45c-2.16-2.52-4.73-4.69-7.3-6.87l-0.44,10.91c2.04,1.18,3.99,2.48,5.87,3.89c1.86,1.42,3.66,2.93,5.35,4.57
				c1.69,1.62,3.27,3.35,4.76,5.16c0.04-3.1-0.78-6.29-2.51-9.45C397.93,303.8,396.15,300.95,393.98,298.45L393.98,298.45z
				 M508.47,306.44c3.51-0.92,6.89-2.34,10.02-4.22c3.14-1.86,6.02-4.18,8.51-6.83c2.51-2.65,4.61-5.64,6.27-8.87
				c-9.27,4.17-20.03,5.36-30.34,3.43c-5.12-0.95-10.06-2.64-14.66-5.01l-15.26,24.99c11.61,1.11,23.6-0.28,35.5-3.36L508.47,306.44
				L508.47,306.44z M424.36,387.25c-3.89,6.12-8.38,11.86-13.41,17.11c-5.04,5.24-10.61,10-16.6,14.15
				c-5.98,4.14-12.37,7.68-19.04,10.55l28.81,37.47c2.76-7.16,6.02-14.35,10.47-21.53c-2.08-1.66-2.71-3.9-2.36-6.07
				c4.19-9.26,8.39-18.67,13.46-28.02L424.36,387.25L424.36,387.25z M268.27,278.76c-2.99,3-6.15,5.84-9.45,8.51
				c-3.31,2.67-6.75,5.16-10.37,7.45c-3.62,2.29-7.38,4.4-11.26,6.26c8.55-8.95,15.64-18.08,22.12-27.27
				c-15.87,6.67-32.12,10.51-48.38,11.83c-6.18,5.57-11.79,11.78-16.72,18.49c-4.95,6.73-9.21,13.96-12.72,21.53
				c-5.95,12.78-9.71,26.56-10.84,40.13c-0.99,10.98-0.55,22.19,1.57,33.18c-7.17,5.88-13.65,12.57-19.31,19.95
				c-5.67,7.37-10.52,15.41-14.34,23.88c-3.82,8.47-6.62,17.35-8.34,25.94h52.93l-4.58-15.84c-0.19-0.68-0.5-1.34-0.88-1.93
				c-1.01-1.45-2.16-2.21-3.43-2.63c-0.74-0.23-1.57-0.34-2.39-0.29c0.05-5.82,0.99-11.63,2.84-17.22
				c1.84-5.59,4.57-10.96,8.08-15.77c3.5-4.81,7.76-9.06,12.5-12.52c4.73-3.47,9.94-6.14,15.42-7.95
				c2.76-5.45,5.96-10.68,9.56-15.62c3.58-4.96,7.57-9.64,11.95-13.92c4.38-4.29,9.17-8.19,14.26-11.63
				c7.88-5.63,16.4-8.54,24.86-9.29c-2.64,1.59-5.16,3.4-7.52,5.4c-2.36,2.01-4.56,4.21-6.57,6.5c-2,2.3-3.81,4.72-5.41,7.24
				c6.49,1.9,12.8,4.45,18.81,7.58c6.02,3.14,11.74,6.87,17.03,11.11c5.29,4.25,10.17,9,14.53,14.18c1.66,2.6,3.95,3.48,6.1,3.71
				c7.81,0.27,15.45,1.3,23.3,4.01c6.39,13.49,8.79,29.19,6.42,44.17c-1.18,7.42-3.54,14.59-6.93,20.72h46.86l-9.54-19.44h-4.58
				c-2.75-3.56-4.86-7.55-6.23-11.83c-1.35-4.26-1.96-8.82-1.73-13.29c0.24-4.48,1.31-8.87,3.14-12.92
				c-0.34-3.48-0.08-7.02,0.74-10.44c0.83-3.42,2.24-6.71,4.11-9.67c1.88-2.98,4.22-5.62,6.93-7.81c-3.12,8.2-4.13,16.83-3.56,25.35
				c6.77-3.9,13.91-5.44,21.2-4.8c3.19-1.72,6.19-3.81,8.92-6.22c2.73-2.41,5.19-5.13,7.34-8.07c2.16-2.92,3.99-6.04,5.51-9.31
				c-2.57-2.02-5.37-3.75-8.33-5.16c-6.08-2.91-12.78-4.37-19.43-4.53c7.22-2.48,15.2-3.12,22.9-1.74
				c3.81,0.67,7.52,1.84,11.03,3.44c3.31-0.84,6.55-1.96,9.65-3.34c3.08-1.37,6.02-2.99,8.83-4.8c2.8-1.81,5.49-3.79,8.03-5.96
				c-0.56-6.11-0.87-12.28-0.58-18.44c0.25-6.02,0.98-12.05,2.18-17.9c1.21-5.87,2.91-11.57,5.19-17.07v16.38
				c1.05-1.82,2.45-3.55,3.98-5.16c1.51-1.61,3.15-3.11,4.86-4.46c1.72-1.35,3.5-2.56,5.36-3.63c5.24-10.71,9.21-21.35,11.86-32.17
				c-2.69-4.11-5.76-7.97-9.19-11.51c-3.43-3.54-7.21-6.75-11.19-9.62c-3.99-2.87-8.17-5.4-13.48-7.8
				c-5.29-2.41-11.71-4.69-18.31-6.41c-13.13-3.42-26.93-4.52-40.5-3.11c10.18-7.64,21.23-7.92,32.15-8.72
				c2.53-0.11,5.04-0.11,7.54-0.03c-1.7-1.31-3.3-2.56-4.99-3.65c-0.9-0.56-1.83-1.09-4.73-2.73c-2.91-1.63-7.76-4.41-12.82-6.77
				c-5.05-2.37-10.32-4.34-15.65-5.96c-5.32-1.62-10.69-2.89-14.08-3.59c-3.39-0.71-4.8-0.83-6.21-0.82
				c-2.68,0.03-5.47,0.55-8.13,1.7c-8.39,3.24-16.59,6.98-24.55,11.19c-7.95,4.21-15.68,8.9-23.09,14.04
				c-7.42,5.15-14.54,10.76-21.29,16.78c-1.3,3.78-2.89,7.46-4.76,11c-1.85,3.55-3.98,6.96-6.35,10.19
				c-2.36,3.23-4.97,6.27-7.79,9.11L268.27,278.76L268.27,278.76z M447.42,536.66c-13.45,14.85-27.71,28.97-42.71,42.32
				c-14.98,13.33-30.69,25.89-47.02,37.56c-16.33,11.66-33.29,22.43-50.77,32.27c-1.06,0.59-2.17,0.55-3.39-0.03
				c-17.46-9.86-34.41-20.66-50.73-32.34c-16.34-11.67-32.05-24.22-47.04-37.59c-14.98-13.39-29.23-27.61-42.18-42.21
				c-12.96-14.62-24.63-29.64-35-45.55c-10.37-15.91-19.45-32.71-27.03-50.1c-7.57-17.39-13.64-35.38-19.4-57.49
				c-5.75-22.12-11.19-48.38-15.4-74.83c-8.44-52.96-11.91-106.63-10.32-160.06l-0.01,0.3c0.08-0.83,0.12-1.58,1.43-2.6
				c0.29-0.2,0.6-0.34,0.94-0.43l43.69-12.56L59.94,86.47l-52.22,16.8c0.88,29.23,2.63,58.44,5.2,87.56
				c2.59,29.13,6.02,58.19,10.28,87.1c4.27,28.92,9.37,57.7,15.3,86.31c5.01,21.46,11.59,42.53,19.66,62.98
				c8.05,20.46,17.61,40.28,28.57,59.23c10.96,18.96,23.33,37.08,38.58,56.48c15.24,19.42,33.34,40.15,52.57,59.85
				c19.22,19.7,39.57,38.36,60.85,55.89c21.28,17.53,43.49,33.9,66.51,49.05c23.02-15.09,45.23-31.41,66.49-48.92
				c21.28-17.5,41.62-36.17,60.91-55.87c19.27-19.7,37.47-40.42,52.73-59.85c15.25-19.42,27.57-37.55,38.5-56.52
				c10.93-18.98,20.5-38.78,28.53-59.16c8.03-20.38,14.54-41.34,19.46-62.66l10.06-51.78l8.24-52.07l6.07-52.49l4.34-52.5l2.6-52.5
				l-52.49-16.92l-42.52,46.86l43.59,12.53c0.76,0.15,1.93,1.11,2.18,2.04c0.12,0.32,0.19,0.66,0.19,0.99
				c0.83,26.76,0.39,53.56-1.34,80.28c-1.72,26.72-4.72,53.37-8.94,79.81c-4.21,26.44-9.65,52.68-15.41,74.75
				c-5.75,22.08-11.83,40-19.4,57.37c-7.57,17.37-16.64,34.17-26.99,50.1c-10.34,15.95-21.95,31.01-34.69,45.07L447.42,536.66
				L447.42,536.66z M241.22,417.93c3.46,1.07,6.77,2.65,9.78,4.7c3.02,2.05,5.75,4.57,8,7.46c2.26,2.89,4.06,6.17,5.29,9.65
				c3.48,8.96,4.26,19.13,1.19,28.92l42.69-0.11l-7.81-18.59c-1.96,0.99-4.34,0.15-6.5-1.62c-2.76-2.57-5.42-5.28-7.95-8.12
				c-2.53-2.85-4.95-5.84-7.18-8.95c-2.22-3.12-4.27-6.38-6.12-9.73l-0.03-6.14c1.82-1.6,3.5-3.34,5-5.21
				c3.14-3.94,5.4-8.2,7.04-12.46c-2.98-3.64-6.37-6.97-10.02-9.85c-3.67-2.89-7.61-5.33-11.74-7.3c-4.14-1.96-8.44-3.44-12.86-4.44
				c0.28,9.38-0.88,19.02-3.62,28.45c-1.35,4.61-3.05,9.1-5.09,13.44L241.22,417.93L241.22,417.93z M369.82,278.68
				c2.48,0.75,5.27,0.72,8.19-1.42c2.76-2.24,3.55-4.92,3.46-7.69l-0.7-9.57c-5.53-0.58-10.96-2-16.08-4.21
				c-5.13-2.22-9.94-5.24-14.16-8.9c-4.22-3.65-7.85-7.92-10.77-12.65c-0.44,4.72-0.05,9.51,1.18,14.16
				c1.25,4.65,3.32,9.17,6.08,13.2c2.76,4.05,6.21,7.61,10.08,10.51C360.96,275.01,365.27,277.26,369.82,278.68L369.82,278.68z"/>
		</g>
	</g>
</g>
<g id="XMLID_3_">
	<g>
		<rect x="288.82" y="507.53" class="st4" width="9.72" height="31.31"/>
	</g>
	<g>
	</g>
</g>
<g id="XMLID_4_">
	<g>
		<rect x="257.51" y="538.84" class="st4" width="95.01" height="10.8"/>
	</g>
	<g>
	</g>
</g>
<g id="XMLID_2_">
	<g>
		<rect x="288.82" y="549.64" class="st4" width="9.72" height="31.31"/>
	</g>
	<g>
	</g>
</g>
</svg>
